<svg xmlns="http://www.w3.org/2000/svg" data-name="Layer 1" viewBox="0 0 100 125" x="0px" y="0px"><title>2Artboard 72</title><path d="M26,98H74A12,12,0,0,0,86,86V34.64a12,12,0,0,0-4.33-9.25L56.36,4.3a9.94,9.94,0,0,0-12.73,0L18.33,25.39A12,12,0,0,0,14,34.64V86A12,12,0,0,0,26,98ZM50,20a7.5,7.5,0,1,1-7.5,7.5A7.5,7.5,0,0,1,50,20Z"/><text x="0" y="115" fill="#000000" font-size="5px" font-weight="bold" font-family="'Helvetica Neue', Helvetica, Arial-Unicode, Arial, Sans-serif">Created by Gregor Cresnar</text><text x="0" y="120" fill="#000000" font-size="5px" font-weight="bold" font-family="'Helvetica Neue', Helvetica, Arial-Unicode, Arial, Sans-serif">from the Noun Project</text></svg>